<svg width="485" height="595" viewBox="0 0 485 595" fill="none" xmlns="http://www.w3.org/2000/svg">
    <rect x="0.292847" y="181.327" width="77.3812" height="77.3812"
        transform="rotate(-90 0.292847 181.327)" fill="#15DFBB" />
    <mask id="mask0_4_80" style="mask-type:alpha" maskUnits="userSpaceOnUse" x="2" y="106"
        width="188" height="188">
        <rect x="2.4422" y="293.1" width="187.005" height="187.005"
            transform="rotate(-90 2.4422 293.1)" fill="#FFBB9C" />
    </mask>
    <g mask="url(#mask0_4_80)">
        <rect x="-24.4263" y="250.889" width="8.49632" height="87.0538"
            transform="rotate(-45 -24.4263 250.889)" fill="#3048C1" />
        <rect x="-38.3979" y="259.486" width="8.49632" height="87.0538"
            transform="rotate(-45 -38.3979 259.486)" fill="#3048C1" />
        <rect x="-28.0803" y="223.591" width="8.49632" height="146.026"
            transform="rotate(-45 -28.0803 223.591)" fill="#3048C1" />
        <rect x="-19.0527" y="209.19" width="8.49632" height="146.026"
            transform="rotate(-45 -19.0527 209.19)" fill="#3048C1" />
        <rect x="-30.7972" y="174.876" width="8.49632" height="212.682"
            transform="rotate(-45 -30.7972 174.876)" fill="#3048C1" />
        <rect x="-19.0527" y="162.057" width="8.49632" height="212.682"
            transform="rotate(-45 -19.0527 162.057)" fill="#3048C1" />
        <rect x="-25.54" y="131.925" width="8.49632" height="267.509"
            transform="rotate(-45 -25.54 131.925)" fill="#3048C1" />
        <rect x="-19.8729" y="112.796" width="8.49632" height="279.308"
            transform="rotate(-45 -19.8729 112.796)" fill="#3048C1" />
        <rect x="-7.23059" y="102.048" width="8.49632" height="279.308"
            transform="rotate(-45 -7.23059 102.048)" fill="#3048C1" />
        <rect x="2.44202" y="88.076" width="8.49632" height="279.308"
            transform="rotate(-45 2.44202 88.076)" fill="#3048C1" />
        <rect x="8.89038" y="70.88" width="8.49632" height="279.308"
            transform="rotate(-45 8.89038 70.88)" fill="#3048C1" />
        <rect x="19.6378" y="55.8337" width="8.49632" height="279.308"
            transform="rotate(-45 19.6378 55.8337)" fill="#3048C1" />
        <rect x="29.3104" y="42.9369" width="8.49632" height="279.308"
            transform="rotate(-45 29.3104 42.9369)" fill="#3048C1" />
        <rect x="43.2819" y="32.1895" width="8.49632" height="279.308"
            transform="rotate(-45 43.2819 32.1895)" fill="#3048C1" />
        <rect x="59.403" y="22.5171" width="8.49632" height="279.308"
            transform="rotate(-45 59.403 22.5171)" fill="#3048C1" />
        <rect x="72.2999" y="10.695" width="8.49632" height="279.308"
            transform="rotate(-45 72.2999 10.695)" fill="#3048C1" />
    </g>
    <mask id="mask1_4_80" style="mask-type:alpha" maskUnits="userSpaceOnUse" x="222" y="367"
        width="189" height="188">
        <rect x="222.996" y="554.757" width="187.005" height="187.005"
            transform="rotate(-90 222.996 554.757)" fill="#FFBB9C" />
    </mask>
    <g mask="url(#mask1_4_80)">
        <rect x="196.128" y="512.546" width="8.49632" height="87.0538"
            transform="rotate(-45 196.128 512.546)" fill="#3048C1" />
        <rect x="182.156" y="521.143" width="8.49632" height="87.0538"
            transform="rotate(-45 182.156 521.143)" fill="#3048C1" />
        <rect x="192.474" y="485.248" width="8.49632" height="146.026"
            transform="rotate(-45 192.474 485.248)" fill="#3048C1" />
        <rect x="201.501" y="470.847" width="8.49632" height="146.026"
            transform="rotate(-45 201.501 470.847)" fill="#3048C1" />
        <rect x="189.757" y="436.533" width="8.49632" height="212.682"
            transform="rotate(-45 189.757 436.533)" fill="#3048C1" />
        <rect x="201.501" y="423.714" width="8.49632" height="212.682"
            transform="rotate(-45 201.501 423.714)" fill="#3048C1" />
        <rect x="195.014" y="393.582" width="8.49632" height="267.509"
            transform="rotate(-45 195.014 393.582)" fill="#3048C1" />
        <rect x="200.681" y="374.453" width="8.49632" height="279.308"
            transform="rotate(-45 200.681 374.453)" fill="#3048C1" />
        <rect x="213.323" y="363.705" width="8.49632" height="279.308"
            transform="rotate(-45 213.323 363.705)" fill="#3048C1" />
        <rect x="222.996" y="349.733" width="8.49632" height="279.308"
            transform="rotate(-45 222.996 349.733)" fill="#3048C1" />
        <rect x="229.444" y="332.537" width="8.49632" height="279.308"
            transform="rotate(-45 229.444 332.537)" fill="#3048C1" />
        <rect x="240.192" y="317.491" width="8.49632" height="279.308"
            transform="rotate(-45 240.192 317.491)" fill="#3048C1" />
        <rect x="249.864" y="304.594" width="8.49632" height="279.308"
            transform="rotate(-45 249.864 304.594)" fill="#3048C1" />
        <rect x="263.836" y="293.847" width="8.49632" height="279.308"
            transform="rotate(-45 263.836 293.847)" fill="#3048C1" />
        <rect x="279.957" y="284.174" width="8.49632" height="279.308"
            transform="rotate(-45 279.957 284.174)" fill="#3048C1" />
        <rect x="292.854" y="272.352" width="8.49632" height="279.308"
            transform="rotate(-45 292.854 272.352)" fill="#3048C1" />
    </g>
    <rect x="184.073" y="443.564" width="150.463" height="150.463"
        transform="rotate(-90 184.073 443.564)" fill="#2B374D" />
    <rect x="334.537" y="301.698" width="150.463" height="150.463"
        transform="rotate(-90 334.537 301.698)" fill="#FDD231" />
    <rect x="189.447" y="151.235" width="150.463" height="150.463"
        transform="rotate(-90 189.447 151.235)" fill="#FDD231" />
    <rect x="38.9833" y="594.027" width="150.463" height="150.463"
        transform="rotate(-90 38.9833 594.027)" fill="#15DFBB" />
    <circle cx="264.678" cy="76.0026" r="24.719" transform="rotate(-90 264.678 76.0026)"
        fill="white" />
    <circle cx="389.885" cy="60.419" r="9.13528" transform="rotate(-90 389.885 60.419)"
        fill="#79FFF7" />
    <circle cx="389.885" cy="9.90607" r="9.13528" transform="rotate(-90 389.885 9.90607)"
        fill="#79FFF7" />
    <circle opacity="0.5" cx="330.238" cy="293.1" r="50.5127" transform="rotate(-90 330.238 293.1)"
        fill="white" />
</svg>